<svg version="1.1" id="Layer_1" xmlns="http://www.w3.org/2000/svg" xmlns:xlink="http://www.w3.org/1999/xlink" x="0px" y="0px"
	 width="100%" viewBox="0 0 1280 876" enable-background="new 0 0 1280 876" xml:space="preserve">
<path fill="none" opacity="1.000000" stroke="#000000" stroke-linecap="round" stroke-linejoin="round" stroke-width="16.000000"
	d="
M896.500000,382.500000 
	C890.754883,379.816345 886.337341,375.646271 881.863098,371.135834 
	C870.568542,359.749878 856.832397,353.432098 840.514282,351.852417 
	C806.841736,348.592804 781.506653,369.737610 772.090820,393.036682 
	C767.517944,404.351898 766.154907,416.093811 767.810730,428.525208 
	C770.869629,451.489349 783.278137,467.631958 802.565735,478.887390 
	C815.132080,486.220612 828.886597,488.097351 843.518677,486.139343 
	C868.500244,482.796478 884.962280,468.629456 895.955750,446.977539 
	C899.909729,439.190094 901.123596,430.634064 901.474304,421.998962 
	C902.011169,408.779175 901.040833,395.706818 897.000000,383.000000 
"/>
<path fill="none" opacity="1.000000" stroke="#000000" stroke-linecap="round" stroke-linejoin="round" stroke-width="17.000000"
	d="
M616.000000,611.000000 
	C616.000000,536.833313 616.023804,462.666656 615.987366,388.500000 
	C615.974121,361.522461 601.171570,343.225861 579.922363,336.754974 
	C562.083374,331.322540 544.976318,334.402954 531.060059,348.061188 
	C527.547302,351.508850 523.129822,352.889160 519.000000,355.000000 
"/>
<path fill="none" opacity="1.000000" stroke="#000000" stroke-linecap="round" stroke-linejoin="round" stroke-width="18.000000"
	d="
M428.500000,295.000000 
	C428.500000,400.166656 428.500000,505.333344 428.500000,610.500000 
"/>
<path fill="none" opacity="1.000000" stroke="#000000" stroke-linecap="round" stroke-linejoin="round" stroke-width="17.000000"
	d="
M751.750000,334.000000 
	C748.104553,336.260071 743.917725,334.684448 739.956787,335.853729 
	C716.121277,342.890106 701.091431,357.876740 695.890747,382.476898 
	C695.246887,385.522675 695.010864,388.471985 695.010315,391.500000 
	C694.997070,464.666656 695.000000,537.833313 695.000000,611.000000 
"/>
<path fill="none" opacity="1.000000" stroke="#000000" stroke-linecap="round" stroke-linejoin="round" stroke-width="17.000000"
	d="
M654.000000,334.000000 
	C654.000000,426.333344 654.000000,518.666687 654.000000,611.000000 
"/>
<path fill="none" opacity="1.000000" stroke="#000000" stroke-linecap="round" stroke-linejoin="round" stroke-width="18.000000"
	d="
M514.500000,292.500000 
	C514.500000,308.333344 514.562927,324.167053 514.459900,339.999725 
	C514.430786,344.478119 515.098938,348.697601 517.531799,352.479523 
	C518.611084,354.157318 518.571655,355.698700 518.025940,357.507843 
	C515.520508,365.814392 514.442017,374.289276 514.451660,383.000061 
	C514.535339,458.833313 514.500000,534.666687 514.500000,610.500000 
"/>
<path fill="none" opacity="1.000000" stroke="#000000" stroke-linecap="round" stroke-linejoin="round" stroke-width="18.000000"
	d="
M901.750000,292.000000 
	C901.387573,306.335938 901.388733,320.662842 901.926331,335.002747 
	C902.306946,345.155151 901.773926,355.340210 902.082642,365.497498 
	C902.275818,371.855225 900.737244,377.442322 897.000000,382.500000 
"/>
<path fill="none" opacity="1.000000" stroke="#000000" stroke-linecap="round" stroke-linejoin="round" stroke-width="4.000000"
	d="
M836.250000,549.000000 
	C838.212463,541.882202 838.621643,535.181763 832.551025,529.445984 
	C828.871765,525.969543 821.118103,523.575745 814.980652,527.469482 
	C809.416931,530.999207 805.970825,538.307373 807.500000,544.000000 
	C809.275696,550.610596 815.394531,555.330383 821.998474,555.547241 
	C826.163147,555.683960 829.661804,554.598450 832.509277,551.508545 
	C833.447266,550.490662 834.371033,549.357605 836.000000,549.500000 
"/>
<path fill="none" opacity="1.000000" stroke="#000000" stroke-linecap="round" stroke-linejoin="round" stroke-width="5.000000"
	d="
M761.000000,538.500000 
	C765.000000,538.500000 769.000061,538.513245 773.000000,538.496887 
	C779.049988,538.472229 784.169250,534.234375 784.500000,529.000000 
	C784.977173,521.447327 781.825867,517.697754 774.509583,516.444031 
	C769.791809,515.635559 765.166687,516.333740 760.000000,515.832703 
	C760.000000,529.328979 760.000000,542.164490 760.000000,555.000000 
"/>
<path fill="none" opacity="1.000000" stroke="#000000" stroke-linecap="round" stroke-linejoin="round" stroke-width="4.000000"
	d="
M872.500000,531.000000 
	C869.679810,530.518677 867.966797,528.145020 865.539917,526.920898 
	C860.228638,524.242004 853.713806,525.167664 848.998535,529.498413 
	C844.658936,533.484192 843.289673,539.908813 845.499939,546.000061 
	C847.585388,551.747559 852.696106,555.148743 858.493530,555.585510 
	C864.780579,556.059204 868.719360,552.605347 872.500000,548.500000 
"/>
<path fill="none" opacity="1.000000" stroke="#000000" stroke-linecap="round" stroke-linejoin="round" stroke-width="4.000000"
	d="
M815.000000,601.500000 
	C824.252991,601.500000 833.505981,601.500000 842.737000,601.500000 
	C842.926270,594.223022 838.078186,589.286133 829.987244,587.559753 
	C824.485718,586.385803 816.826111,591.054688 814.500000,596.500000 
	C811.862854,602.673462 813.975037,610.921936 819.525085,614.965576 
	C824.643677,618.694885 831.930664,618.712158 837.464294,614.453613 
	C838.746948,613.466614 839.836182,612.304626 841.500000,612.000000 
"/>
<path fill="none" opacity="1.000000" stroke="#000000" stroke-linecap="round" stroke-linejoin="round" stroke-width="4.000000"
	d="
M879.000000,539.000000 
	C888.250000,540.157898 897.500000,539.091797 906.739868,539.663940 
	C906.850464,532.435486 902.530640,527.292969 894.483826,525.575806 
	C888.467590,524.291992 881.001709,528.531616 878.500061,534.000061 
	C875.832336,539.831482 877.835022,548.180969 883.006531,552.492188 
	C887.612671,556.332153 895.489624,557.094482 901.009583,552.511475 
	C902.109741,551.598083 903.333313,550.833313 904.500000,549.999939 
"/>
<path fill="none" opacity="1.000000" stroke="#000000" stroke-linecap="round" stroke-linejoin="round" stroke-width="5.000000"
	d="
M780.500000,595.000000 
	C781.789673,592.476685 784.598267,591.075073 784.640198,587.501648 
	C784.702942,582.159424 782.792786,579.297913 777.503601,578.476685 
	C771.820862,577.594299 766.166687,578.223267 760.314392,577.938660 
	C760.181519,579.655273 760.014221,580.827515 760.011963,582.000000 
	C759.991455,592.500000 760.129761,603.002502 759.927612,613.498596 
	C759.859619,617.033142 760.958618,618.319275 764.503845,618.050415 
	C769.321899,617.684937 774.188354,618.404907 779.001221,617.506653 
	C784.285339,616.520325 788.264404,611.464233 788.000000,606.000000 
	C787.702881,599.859924 783.272644,595.180725 777.499573,595.015076 
	C774.502014,594.929016 771.500000,595.000000 768.500000,595.000000 
	C766.000000,595.000000 763.500000,595.000000 761.000000,595.000000 
"/>
<path fill="none" opacity="1.000000" stroke="#000000" stroke-linecap="round" stroke-linejoin="round" stroke-width="17.000000"
	d="
M479.000000,292.000000 
	C466.000000,292.000000 452.998993,292.090668 440.000580,291.946838 
	C435.898468,291.901428 432.109314,294.090881 428.500000,294.090881 
	C424.890686,294.090881 421.101532,291.901428 416.999420,291.946808 
	C404.001007,292.090637 391.000000,292.000000 378.000000,292.000000 
"/>
<path fill="none" opacity="1.000000" stroke="#000000" stroke-linecap="round" stroke-linejoin="round" stroke-width="5.000000"
	d="
M792.000000,514.500000 
	C792.000000,524.000000 791.765198,533.507751 792.077576,542.997437 
	C792.308655,550.017578 796.765686,554.506775 803.500000,555.500000 
"/>
<path fill="none" opacity="1.000000" stroke="#000000" stroke-linecap="round" stroke-linejoin="round" stroke-width="4.000000"
	d="
M885.000000,586.500000 
	C884.735718,594.497986 885.454834,602.505554 884.550720,610.505737 
	C884.111206,614.394836 881.894775,616.524597 878.484009,617.440552 
	C875.074341,618.356201 870.108887,615.870667 868.464417,613.020508 
	C867.908875,612.057678 868.407471,611.321533 868.393433,610.501831 
	C868.256104,602.501831 869.142822,594.479675 868.000000,586.500000 
"/>
<path fill="none" opacity="1.000000" stroke="#000000" stroke-linecap="round" stroke-linejoin="round" stroke-width="5.000000"
	d="
M808.500000,587.500000 
	C799.758179,588.591064 795.634155,594.588989 795.963013,602.501526 
	C796.163574,607.326538 796.000000,612.166687 796.000000,617.000000 
"/>
<path fill="none" opacity="1.000000" stroke="#000000" stroke-linecap="round" stroke-linejoin="round" stroke-width="4.000000"
	d="
M851.500000,587.500000 
	C851.500000,594.333313 851.549377,601.167175 851.480408,607.999817 
	C851.442932,611.706726 851.981812,614.743774 855.953308,616.599854 
	C859.603882,618.305969 862.527649,617.611328 865.494751,615.492676 
	C866.362000,614.873413 867.166687,614.166687 868.000000,613.500000 
"/>
<path fill="none" opacity="1.000000" stroke="#000000" stroke-linecap="round" stroke-linejoin="round" stroke-width="4.000000"
	d="
M836.500000,550.000000 
	C838.284790,552.306458 837.197021,554.995972 837.500000,557.500000 
"/>
</svg>